<?xml version="1.0" encoding="UTF-8"?>
<svg version="1.1" xmlns="http://www.w3.org/2000/svg" width="500" height="500">
<path d="M0 0 C0.94359375 0.70511719 1.8871875 1.41023438 2.859375 2.13671875 C8.26104433 6.30255161 12.69773782 10.72472066 17 16 C17.67417969 16.76441406 18.34835937 17.52882812 19.04296875 18.31640625 C46.62838657 50.29596142 55.66936347 91.55858689 52.79785156 132.91113281 C51.29429316 148.17934288 47.63569015 164.25129556 40.67578125 177.97338867 C39.3457132 181.96215127 41.41402064 185.32691586 43 189 C57.6074092 228.3535136 56.92665272 272.443342 40 311 C35.31730286 321.01259632 29.94172284 330.37009048 23 339 C22.59023926 339.5151416 22.18047852 340.0302832 21.75830078 340.56103516 C0.7504429 366.81891017 -29.35665946 385.71959176 -63.11328125 389.6171875 C-91.43390292 392.60733213 -118.29048007 389.8513798 -144 377 C-145.16917969 376.41605469 -146.33835937 375.83210938 -147.54296875 375.23046875 C-172.00996179 362.09846684 -190.33905526 341.3891678 -203 317 C-203.32097656 316.39462402 -203.64195312 315.78924805 -203.97265625 315.16552734 C-223.65665776 277.66091569 -223.08590407 232.82228732 -210.76171875 193.20068359 C-210.05273867 191.15236743 -209.22803208 189.23223002 -208.3125 187.26953125 C-205.79634699 181.00161439 -207.25682749 176.62688938 -209.75 170.625 C-220.71721082 142.73759703 -222.29094179 111.22679493 -216 82 C-215.82839355 81.19916992 -215.65678711 80.39833984 -215.47998047 79.57324219 C-207.30273308 42.81582094 -185.29833728 11.01270983 -153.5625 -9.25 C-104.77700932 -38.13148298 -45.01839309 -33.95524606 0 0 Z " fill="#FD9898" transform="translate(333,70)"/>
<path d="M0 0 C3.82812297 2.83691256 7.45418494 5.81859986 11 9 C11.65613281 9.58523437 12.31226563 10.17046875 12.98828125 10.7734375 C30.73944507 27.5406122 39.19306037 53.48752156 40.08886719 77.36914062 C40.44652739 92.13288489 40.44652739 92.13288489 39 98 C38.3915625 97.59910156 37.783125 97.19820313 37.15625 96.78515625 C4.22342933 75.42725343 -32.36558697 65.07092764 -71.85253906 72.52172852 C-89.93127149 76.40767112 -106.55387432 83.79728245 -121.64453125 94.43359375 C-124 96 -124 96 -127 97 C-133.36651591 74.63107411 -124.94129962 46.44346827 -114.11621094 26.8984375 C-102.33730229 6.86501807 -84.24796848 -6.05165718 -62 -12 C-40.41549898 -16.88562046 -18.08010953 -12.34144731 0 0 Z " fill="#FDE9BF" transform="translate(294,103)"/>
<path d="M0 0 C4.9105888 2.89099382 9.76211627 5.80158925 14.4375 9.0625 C27.56222482 17.81231655 43.79339076 22.27661034 59 26 C59.01213028 27.06995712 59.01213028 27.06995712 59.02450562 28.16152954 C59.1026043 34.89980364 59.18994051 41.63788823 59.28752708 48.37590981 C59.33736909 51.83959613 59.38369952 55.30325373 59.421875 58.76708984 C59.46596918 62.75375233 59.5255705 66.74011191 59.5859375 70.7265625 C59.59748871 71.96427399 59.60903992 73.20198547 59.62094116 74.47720337 C59.64081085 75.6379538 59.66068054 76.79870422 59.68115234 77.99462891 C59.69447601 79.01166901 59.70779968 80.02870911 59.7215271 81.0765686 C60.27320073 86.8680837 62.51221338 92.34961784 66 97 C73.49702976 102.81402308 80.9019153 102.65529003 90 102 C95.97399974 100.56587468 99.24783281 97.06025304 102.7734375 92.1953125 C105.3490744 87.58541462 106.25017963 83.23628823 106.31884766 77.99462891 C106.33871735 76.83387848 106.35858704 75.67312805 106.37905884 74.47720337 C106.39061005 73.23949188 106.40216125 72.0017804 106.4140625 70.7265625 C106.43342865 69.44768158 106.4527948 68.16880066 106.4727478 66.85116577 C106.52228279 63.46792838 106.56360235 60.08479618 106.60089111 56.70141602 C106.64105483 53.24225227 106.69209044 49.78325037 106.7421875 46.32421875 C106.83810704 39.54958356 106.9231921 32.77487737 107 26 C107.73917664 25.77794891 108.47835327 25.55589783 109.2399292 25.32711792 C112.63547382 24.30391449 116.02866578 23.27310806 119.421875 22.2421875 C120.58444824 21.89309326 121.74702148 21.54399902 122.94482422 21.18432617 C137.32123515 16.80250959 149.40459441 11.02793456 161.33984375 1.90625 C164 0 164 0 166 0 C170.012831 25.24200142 164.24949092 52.98324098 150.04296875 74.27734375 C146.08093767 79.55752666 141.6268382 84.30066149 137 89 C136.28070313 89.74378906 135.56140625 90.48757813 134.8203125 91.25390625 C118.68879168 106.80712727 97.71805843 110.67218049 76.1484375 110.3046875 C59.33407852 109.68685044 42.46759547 102.32534014 30 91 C29.26652344 90.35804688 28.53304687 89.71609375 27.77734375 89.0546875 C9.4289109 71.99662472 0.12360156 45.60687422 -1 21 C-1.07991085 17.45823678 -1.11188158 13.91759794 -1.125 10.375 C-1.12967285 9.47281738 -1.1343457 8.57063477 -1.13916016 7.64111328 C-1.13706543 6.79790527 -1.1349707 5.95469727 -1.1328125 5.0859375 C-1.13168457 4.3232959 -1.13055664 3.5606543 -1.12939453 2.77490234 C-1 1 -1 1 0 0 Z " fill="#FDE9BF" transform="translate(167,302)"/>
<path d="M0 0 C0 0.66 0 1.32 0 2 C0.56203125 2.23460937 1.1240625 2.46921875 1.703125 2.7109375 C4.54635891 4.30663 6.48098127 6.28924543 8.75 8.625 C9.54921875 9.44226563 10.3484375 10.25953125 11.171875 11.1015625 C11.77515625 11.72804687 12.3784375 12.35453125 13 13 C8.24438256 26.3566863 -7.48523241 33.61117867 -19.49609375 39.43359375 C-22.14473895 40.61765922 -24.23710863 41.35070528 -27 42 C-28.10601562 42.34675781 -29.21203125 42.69351563 -30.3515625 43.05078125 C-36.59008282 44.60535931 -42.9895684 44.24902292 -49.375 44.1875 C-50.63828125 44.18685547 -51.9015625 44.18621094 -53.203125 44.18554688 C-69.17190076 44.11084886 -69.17190076 44.11084886 -74 43 C-74.33 42.34 -74.66 41.68 -75 41 C-77.00608134 40.07891946 -77.00608134 40.07891946 -79.4375 39.25 C-88.52849572 35.71964177 -95.58963486 30.82464153 -102.67578125 24.1484375 C-104.98018539 21.93782059 -104.98018539 21.93782059 -107.66796875 20.0390625 C-110.20694339 17.81905452 -111.02596079 16.18776469 -112 13 C-101.37704875 1.97021232 -88.71416712 -11.11321648 -72.625 -12.9375 C-70.830625 -12.9684375 -70.830625 -12.9684375 -69 -13 C-69 -13.66 -69 -14.32 -69 -15 C-44.22305911 -17.88463345 -20.19012884 -15.84872808 0 0 Z " fill="#FDB387" transform="translate(299,237)"/>
<path d="M0 0 C2.85872023 0.46827703 5.70103481 0.93481579 8.53173828 1.55200195 C13.26475 2.41105997 18.07829968 2.1846139 22.875 2.1875 C23.93847656 2.19974609 25.00195312 2.21199219 26.09765625 2.22460938 C31.87432113 2.23537335 36.51788684 1.73806344 42 0 C43.99962632 -0.03866005 46.00048467 -0.04402762 48 0 C48.09310178 7.4067109 48.16396685 14.8132935 48.20724869 22.22047329 C48.22803277 25.66078449 48.25617889 29.10069235 48.30175781 32.54077148 C48.35394646 36.50499472 48.37302121 40.46906048 48.390625 44.43359375 C48.42159271 46.2669352 48.42159271 46.2669352 48.45318604 48.13731384 C48.45572749 57.89958737 46.39505672 65.34678092 39.6015625 72.55859375 C33.67590675 77.89168392 27.2540993 77.35156131 19.62109375 77.3984375 C13.13869758 76.68516414 9.2415934 73.79969779 5 69 C0.73663656 63.31551542 -0.12876684 59.10398152 -0.11352539 52.1081543 C-0.11344986 50.94732834 -0.11337433 49.78650238 -0.11329651 48.59049988 C-0.10813522 47.34762711 -0.10297394 46.10475433 -0.09765625 44.82421875 C-0.0962413 43.54392288 -0.09482635 42.26362701 -0.09336853 40.9445343 C-0.08956397 37.5530296 -0.07975143 34.16156823 -0.06866455 30.77008057 C-0.05840597 27.30440863 -0.05386141 23.83872964 -0.04882812 20.37304688 C-0.03780755 13.58201252 -0.0210757 6.79101019 0 0 Z " fill="#FDB487" transform="translate(226,328)"/>
<path d="M0 0 C0.89420654 -0.01804687 1.78841309 -0.03609375 2.7097168 -0.0546875 C9.94663224 0.0095158 15.2007675 1.82696211 20.75 6.5 C25.05986251 11.80444617 24.70916815 16.66288213 24.6875 23.25 C24.70361328 24.21421875 24.71972656 25.1784375 24.73632812 26.171875 C24.74049954 32.31219378 24.07347263 36.95209124 21.375 42.5 C12.70746943 49.08732323 1.90911596 49.30256894 -8.55859375 48.1875 C-14.04811508 47.35327152 -18.48366546 46.43426782 -22.625 42.5 C-25.57726715 36.19288381 -26.08874946 30.84516612 -26 23.9375 C-26.01160156 23.03064453 -26.02320313 22.12378906 -26.03515625 21.18945312 C-26.01051838 15.52684865 -25.23583543 11.53518261 -22.625 6.5 C-21.965 6.5 -21.305 6.5 -20.625 6.5 C-20.625 5.84 -20.625 5.18 -20.625 4.5 C-14.04982097 0.53008059 -7.49147297 0.06267376 0 0 Z " fill="#FCB488" transform="translate(250.625,117.5)"/>
<path d="M0 0 C0 17.82 0 35.64 0 54 C-14.04873656 50.48781586 -22.97377002 43.99674107 -33 34 C-33.9384375 33.14664063 -34.876875 32.29328125 -35.84375 31.4140625 C-38 29 -38 29 -38 25 C-35.38081693 21.63428649 -32.1558557 18.85866749 -29 16 C-27.84564453 14.95199219 -27.84564453 14.95199219 -26.66796875 13.8828125 C-20.13740546 8.31613003 -8.90709467 0 0 0 Z " fill="#FDE9BF" transform="translate(226,224)"/>
<path d="M0 0 C9.10002493 3.79167705 16.92515188 7.61676792 25 13 C25 13.66 25 14.32 25 15 C25.56203125 15.23460937 26.1240625 15.46921875 26.703125 15.7109375 C29.54635891 17.30663 31.48098127 19.28924543 33.75 21.625 C34.94882812 22.85089844 34.94882812 22.85089844 36.171875 24.1015625 C36.77515625 24.72804687 37.3784375 25.35453125 38 26 C33.22039316 39.42406322 17.37067883 46.68220716 5.30859375 52.53125 C2 54 2 54 0 54 C0 36.18 0 18.36 0 0 Z " fill="#FDE9BF" transform="translate(274,224)"/>
<path d="M0 0 C0.33 0.66 0.66 1.32 1 2 C-0.3990788 3.88081289 -1.80356909 5.75721575 -3.21484375 7.62890625 C-4.42374879 9.23460725 -5.62404374 10.84682065 -6.81640625 12.46484375 C-7.41324219 13.26019531 -8.01007813 14.05554688 -8.625 14.875 C-9.17414063 15.61492187 -9.72328125 16.35484375 -10.2890625 17.1171875 C-12.11496462 19.12651357 -13.56706367 19.85941737 -16 21 C-18.2729662 22.79722909 -20.47822385 24.6597038 -22.68359375 26.5390625 C-25.36758482 28.23183258 -26.8861229 28.29655972 -30 28 C-27.8805947 26.3882662 -25.74482652 24.82349821 -23.5546875 23.30859375 C-14.27987803 16.83245128 -6.20497503 9.51429505 0 0 Z " fill="#F3A498" transform="translate(316,376)"/>
<path d="M0 0 C0.78246094 0.09023438 1.56492188 0.18046875 2.37109375 0.2734375 C4.5625 0.625 4.5625 0.625 7.5625 1.625 C8.25730469 1.48191406 8.95210937 1.33882813 9.66796875 1.19140625 C13.74545807 0.39351698 17.73177774 0.51998864 21.875 0.5625 C22.71095703 0.56701172 23.54691406 0.57152344 24.40820312 0.57617188 C26.45966649 0.58789452 28.51109273 0.60582797 30.5625 0.625 C25.73120841 5.45629159 17.41728895 3.8484941 11.0625 3.875 C9.20818359 3.9059375 9.20818359 3.9059375 7.31640625 3.9375 C6.12917969 3.94265625 4.94195312 3.9478125 3.71875 3.953125 C2.09163086 3.96714355 2.09163086 3.96714355 0.43164062 3.98144531 C-2.75034357 3.58613414 -4.10249484 2.76377437 -6.4375 0.625 C-3.9632021 -0.61214895 -2.72250667 -0.33081362 0 0 Z " fill="#FCA58F" transform="translate(235.4375,327.375)"/>
<path d="M0 0 C0.33 0 0.66 0 1 0 C1 3.3 1 6.6 1 10 C1.66 10 2.32 10 3 10 C1.125 14.875 1.125 14.875 0 16 C-0.1584265 18.0708472 -0.25124422 20.14678029 -0.31640625 22.22265625 C-0.35830078 23.48271484 -0.40019531 24.74277344 -0.44335938 26.04101562 C-0.48317596 27.38150736 -0.52288814 28.7220022 -0.5625 30.0625 C-0.60568042 31.40691523 -0.64929456 32.7513166 -0.69335938 34.09570312 C-0.79985358 37.3970234 -0.9018646 40.69842236 -1 44 C-1.33 44 -1.66 44 -2 44 C-2.41277905 12.473206 -2.41277905 12.473206 0 0 Z " fill="#E79495" transform="translate(116,157)"/>
<path d="M0 0 C-1 1 -1 1 -4.125 1.4375 C-11.48808452 2.50633485 -17.94260989 5.09803065 -24.81640625 7.87890625 C-27.89438002 8.96280622 -30.77227415 9.56801865 -34 10 C-27.45981939 4.80026181 -19.59717882 2.75466247 -11.625 0.6875 C-10.9350293 0.50388916 -10.24505859 0.32027832 -9.53417969 0.13110352 C-6.06812343 -0.72777606 -3.38869811 -1.34679027 0 0 Z " fill="#F1A497" transform="translate(226,176)"/>
<path d="M0 0 C0 3.73651504 -0.9755848 4.53973643 -3.3125 7.375 C-5.81540787 10.48984126 -8.03359189 13.51409471 -10 17 C-10.8908814 18.44057417 -11.78708946 19.8778626 -12.6875 21.3125 C-13.12449219 22.00988281 -13.56148437 22.70726562 -14.01171875 23.42578125 C-14.50091797 24.20501953 -14.50091797 24.20501953 -15 25 C-15.33 24.34 -15.66 23.68 -16 23 C-12.41733088 14.36561753 -6.58370095 6.58370095 0 0 Z " fill="#FED9BC" transform="translate(193,113)"/>
<path d="M0 0 C0.66 0.33 1.32 0.66 2 1 C-0.4548154 3.31625867 -2.91443426 5.62735205 -5.375 7.9375 C-6.07367188 8.59685547 -6.77234375 9.25621094 -7.4921875 9.93554688 C-8.1625 10.56396484 -8.8328125 11.19238281 -9.5234375 11.83984375 C-10.14138184 12.42113037 -10.75932617 13.00241699 -11.39599609 13.60131836 C-13 15 -13 15 -15 16 C-14.1875 13.5625 -14.1875 13.5625 -13 11 C-12.01 10.67 -11.02 10.34 -10 10 C-9.67 9.01 -9.34 8.02 -9 7 C-8.34 7 -7.68 7 -7 7 C-6.6596875 6.1028125 -6.6596875 6.1028125 -6.3125 5.1875 C-4.6388703 2.39811716 -2.91182274 1.3831158 0 0 Z " fill="#F3A699" transform="translate(201,235)"/>
<path d="M0 0 C1.76462683 3.08809695 2 4.23312136 2 8 C5.96 5.36 9.92 2.72 14 0 C14.33 0.99 14.66 1.98 15 3 C10.375 6 10.375 6 7 6 C6.34 7.32 5.68 8.64 5 10 C1.125 9.125 1.125 9.125 0 8 C-0.14115161 5.32941149 -0.04247107 2.67567762 0 0 Z " fill="#F3A499" transform="translate(165,192)"/>
<path d="M0 0 C-1.74499747 1.63067005 -3.49558788 3.25451247 -5.25 4.875 C-5.74113281 5.33519531 -6.23226563 5.79539062 -6.73828125 6.26953125 C-9.33862024 8.66184312 -11.72075115 10.64145405 -15 12 C-15 11.01 -15 10.02 -15 9 C-14.01 9 -13.02 9 -12 9 C-11.7525 8.2575 -11.505 7.515 -11.25 6.75 C-9.57881528 3.07339362 -7.70976882 0.65373514 -3.875 -0.8125 C-2 -1 -2 -1 0 0 Z " fill="#EC9597" transform="translate(345,422)"/>
<path d="M0 0 C0.75732422 0.04833984 1.51464844 0.09667969 2.29492188 0.14648438 C3.08060547 0.20255859 3.86628906 0.25863281 4.67578125 0.31640625 C5.47306641 0.36861328 6.27035156 0.42082031 7.09179688 0.47460938 C9.05764647 0.60409647 11.0230179 0.74080666 12.98828125 0.87890625 C12.98828125 1.20890625 12.98828125 1.53890625 12.98828125 1.87890625 C2.59328125 2.37390625 2.59328125 2.37390625 -8.01171875 2.87890625 C-6.28289536 -0.57874054 -3.44247755 -0.23294961 0 0 Z " fill="#FBA18E" transform="translate(243.01171875,219.12109375)"/>
<path d="M0 0 C4.28477792 2.30718811 7.72291137 4.32966073 11 8 C9.1875 8.6875 9.1875 8.6875 7 9 C5.4375 7.5625 5.4375 7.5625 4 6 C3.01 6 2.02 6 1 6 C0.4465236 3.92446352 0 2.15634036 0 0 Z " fill="#EE9799" transform="translate(321,62)"/>
<path d="M0 0 C1.67641098 4.09086452 0.2409319 7.71511018 -0.9375 11.75 C-1.13279297 12.44738281 -1.32808594 13.14476562 -1.52929688 13.86328125 C-2.0108246 15.57798973 -2.50425157 17.28934877 -3 19 C-4.71927255 13.24304191 -3.82139237 7.87277461 -1.4375 2.4375 C-0.7259375 1.2309375 -0.7259375 1.2309375 0 0 Z " fill="#E99396" transform="translate(382,216)"/>
<path d="M0 0 C0.66 0.99 1.32 1.98 2 3 C-3.61 2.34 -9.22 1.68 -15 1 C-15 0.67 -15 0.34 -15 0 C-9.72745789 -0.83250665 -5.27597734 -1.26623456 0 0 Z " fill="#FCA290" transform="translate(271,221)"/>
<path d="M0 0 C-1.8125 2.0625 -1.8125 2.0625 -5 4 C-8.73030079 4.05763105 -12.32162911 3.59266221 -16 3 C-10.76611391 0.23704726 -5.87728208 -0.13993529 0 0 Z " fill="#E79395" transform="translate(233,43)"/>
<path d="M0 0 C0.66 0.33 1.32 0.66 2 1 C0 5 -2 9 -4 13 C-4.95465783 10.83032311 -5.14401212 9.43671207 -4.3984375 7.17578125 C-3.64129615 5.4315257 -2.82390802 3.71372869 -2 2 C-1.34 2 -0.68 2 0 2 C0 1.34 0 0.68 0 0 Z " fill="#F6BF95" transform="translate(230,122)"/>
<path d="M0 0 C6.02770138 0.47587116 10.76678289 3.19722957 16 6 C14 7 14 7 10.99609375 6.07421875 C9.82175781 5.61660156 8.64742187 5.15898437 7.4375 4.6875 C5.67212891 4.01267578 5.67212891 4.01267578 3.87109375 3.32421875 C1 2 1 2 0 0 Z " fill="#F2A597" transform="translate(191,316)"/>
<path d="M0 0 C4.47238653 1.41807378 8.71146306 3.11304374 13 5 C12.67 5.66 12.34 6.32 12 7 C7.76570244 5.68938409 3.92592596 4.05643741 0 2 C0 1.34 0 0.68 0 0 Z " fill="#F1A496" transform="translate(212,273)"/>
<path d="M0 0 C3.63559661 3.43361902 6.36113346 6.7973607 9 11 C6.34795104 10.63165987 5.26159944 10.3132309 3.515625 8.22265625 C2.88914063 7.15337891 2.88914063 7.15337891 2.25 6.0625 C1.82203125 5.35222656 1.3940625 4.64195312 0.953125 3.91015625 C0 2 0 2 0 0 Z " fill="#F2A698" transform="translate(183,377)"/>
<path d="M0 0 C0 4.02867919 -1.70343701 5.75779342 -4 9 C-4.99 10.485 -4.99 10.485 -6 12 C-6.66 11.67 -7.32 11.34 -8 11 C-5.36 7.37 -2.72 3.74 0 0 Z " fill="#E29697" transform="translate(147,89)"/>
<path d="M0 0 C2.64 0.33 5.28 0.66 8 1 C5.04816899 3.95183101 2.04488053 4.08663988 -2 5 C-2 4.34 -2 3.68 -2 3 C-1.34 2.67 -0.68 2.34 0 2 C0 1.34 0 0.68 0 0 Z " fill="#E99696" transform="translate(291,450)"/>
<path d="M0 0 C0.66 0 1.32 0 2 0 C1.71640113 1.4391134 1.42278601 2.87625518 1.125 4.3125 C0.88136719 5.51326172 0.88136719 5.51326172 0.6328125 6.73828125 C0 9 0 9 -2 12 C-1.85904936 10.3745692 -1.71207913 8.74965949 -1.5625 7.125 C-1.48128906 6.22007812 -1.40007812 5.31515625 -1.31640625 4.3828125 C-1 2 -1 2 0 0 Z " fill="#E99598" transform="translate(379,356)"/>
<path d="M0 0 C2.56616632 3.84924948 2.55097676 6.4349304 3 11 C0.9375 8.875 0.9375 8.875 -1 6 C-0.75 2.6875 -0.75 2.6875 0 0 Z " fill="#E99A9A" transform="translate(378,267)"/>
<path d="M0 0 C0.33 0.66 0.66 1.32 1 2 C-1.31 4.64 -3.62 7.28 -6 10 C-6.33 9.01 -6.66 8.02 -7 7 C-6.34 7 -5.68 7 -5 7 C-5 6.34 -5 5.68 -5 5 C-4.34 5 -3.68 5 -3 5 C-2.690625 4.360625 -2.38125 3.72125 -2.0625 3.0625 C-1 1 -1 1 0 0 Z " fill="#FED7BC" transform="translate(311,250)"/>
<path d="M0 0 C-4.95 2.97 -4.95 2.97 -10 6 C-10 5.01 -10 4.02 -10 3 C-9.01 3 -8.02 3 -7 3 C-6.67 2.01 -6.34 1.02 -6 0 C-3.42525708 -0.99667468 -2.51072708 -1.25536354 0 0 Z " fill="#F5A197" transform="translate(217,227)"/>
<path d="M0 0 C0.91058531 3.07322544 1.08886184 5.80097361 1 9 C-0.32 7.68 -1.64 6.36 -3 5 C-1.125 1.125 -1.125 1.125 0 0 Z " fill="#FED9BE" transform="translate(190,247)"/>
<path d="M0 0 C0 0.66 0 1.32 0 2 C-0.99 2 -1.98 2 -3 2 C-2.67 2.99 -2.34 3.98 -2 5 C-2.99 5.495 -2.99 5.495 -4 6 C-4.33 5.34 -4.66 4.68 -5 4 C-6.65 4 -8.3 4 -10 4 C-7.25346796 1.25346796 -3.91404908 0 0 0 Z " fill="#ED9597" transform="translate(206,49)"/>
<path d="M0 0 C0 3.69418201 -1.28179295 5.77836178 -3 9 C-3.66 9 -4.32 9 -5 9 C-4.5206753 4.68607774 -3.2542015 2.83430453 0 0 Z " fill="#EB9597" transform="translate(367,389)"/>
<path d="M0 0 C0.99 0.33 1.98 0.66 3 1 C2.814375 1.5775 2.62875 2.155 2.4375 2.75 C1.95976454 5.20692525 2.24270636 6.64397534 3 9 C1.68 8.34 0.36 7.68 -1 7 C-0.67 4.69 -0.34 2.38 0 0 Z " fill="#E99797" transform="translate(371,247)"/>
<path d="M0 0 C1.1875 1.625 1.1875 1.625 2 4 C0.625 7.25 0.625 7.25 -1 10 C-2.46726798 6.18510326 -1.43336419 3.70988378 0 0 Z " fill="#FED8BB" transform="translate(173,144)"/>
</svg>
